<?xml version="1.0" encoding="UTF-8"?>
<svg xmlns="http://www.w3.org/2000/svg" width="512" height="512" viewBox="0 0 512 512"><g><path d="M104,64H93.13a32,32,0,1,0-42.26,0H40A32.03,32.03,0,0,0,8,96v52a20.02,20.02,0,0,0,20,20h4v60a20.02,20.02,0,0,0,20,20H92a20.02,20.02,0,0,0,20-20V168h4a20.02,20.02,0,0,0,20-20V96A32.03,32.03,0,0,0,104,64ZM72,24A16,16,0,1,1,56,40,16.021,16.021,0,0,1,72,24Zm48,124a4,4,0,0,1-4,4h-4V120a8,8,0,0,0-16,0V228a4,4,0,0,1-4,4H80V176a8,8,0,0,0-16,0v56H52a4,4,0,0,1-4-4V120a8,8,0,0,0-16,0v32H28a4,4,0,0,1-4-4V96A16.021,16.021,0,0,1,40,80h64a16.021,16.021,0,0,1,16,16Z"/><path d="M496,16H160a8,8,0,0,0-8,8V72a8,8,0,0,0,8,8H496a8,8,0,0,0,8-8V24A8,8,0,0,0,496,16Zm-8,48H168V32H488Z"/><path d="M496,96H160a8,8,0,0,0-8,8v48a8,8,0,0,0,8,8H496a8,8,0,0,0,8-8V104A8,8,0,0,0,496,96Zm-8,48H168V112H488Z"/><path d="M104,320H93.13a32,32,0,1,0-42.26,0H40A32.036,32.036,0,0,0,8,352v52a20.02,20.02,0,0,0,20,20h4v60a20.02,20.02,0,0,0,20,20H92a20.02,20.02,0,0,0,20-20V424h4a20.02,20.02,0,0,0,20-20V352A32.036,32.036,0,0,0,104,320ZM72,280a16,16,0,1,1-16,16A16.021,16.021,0,0,1,72,280Zm48,124a4,4,0,0,1-4,4h-4V376a8,8,0,0,0-16,0V484a4,4,0,0,1-4,4H80V432a8,8,0,0,0-16,0v56H52a4,4,0,0,1-4-4V376a8,8,0,0,0-16,0v32H28a4,4,0,0,1-4-4V352a16.021,16.021,0,0,1,16-16h64a16.021,16.021,0,0,1,16,16Z"/><path d="M496,272H160a8,8,0,0,0-8,8v48a8,8,0,0,0,8,8H496a8,8,0,0,0,8-8V280A8,8,0,0,0,496,272Zm-8,48H168V288H488Z"/><path d="M496,352H160a8,8,0,0,0-8,8v48a8,8,0,0,0,8,8H496a8,8,0,0,0,8-8V360A8,8,0,0,0,496,352Zm-8,48H168V368H488Z"/><path d="M160,192H344a8,8,0,0,0,0-16H160a8,8,0,0,0,0,16Z"/><path d="M160,216h48a8,8,0,0,0,0-16H160a8,8,0,0,0,0,16Z"/><path d="M344,432H160a8,8,0,0,0,0,16H344a8,8,0,0,0,0-16Z"/><path d="M208,456H160a8,8,0,0,0,0,16h48a8,8,0,0,0,0-16Z"/></g></svg>
